<mxfile host="app.diagrams.net" modified="2024-02-14T09:06:17.975Z" agent="Mozilla/5.0 (Windows NT 10.0; Win64; x64) AppleWebKit/537.36 (KHTML, like Gecko) Chrome/121.0.0.0 Safari/537.36" version="23.1.4" etag="v20HOH9Zkm4I58IID0ck" type="github">
  <diagram name="Page-1" id="w6f9bMecOZPiMp0Jml6w">
    <mxGraphModel>
      <root>
        <mxCell id="0" />
        <mxCell id="1" parent="0" />
      </root>
    </mxGraphModel>
  </diagram>
</mxfile>
